<svg width="128" height="128" viewBox="0 0 128 128" fill="none" xmlns="http://www.w3.org/2000/svg">
<path d="M18.9999 62.5L2.99993 50C2.58126 49.0237 2.51757 48.4763 2.99993 47.5C13.7376 28.7253 19.4253 20.6239 28.9999 10H97.9999C108.208 22.031 113.793 30.1055 123.5 47.5C123.881 48.5942 123.859 49.1346 123.5 50L107.5 62.5C106.821 62.8686 106.42 63.0092 105.5 62.5C105.5 62.5 98.9999 53.5 97.9999 54C96.9999 54.5 97.9999 115.5 97.9999 115.5C97.7871 116.242 97.6366 116.542 96.9999 116.851H29.9999C29.406 116.501 29.1712 116.221 28.9999 115.5C28.9999 115.5 30 54 28.9999 54C27.9999 54 21.4999 62.5 21.4999 62.5C20.5237 63.1848 19.9763 63.3844 18.9999 62.5Z" fill="#D9D9D9" stroke="black"/>
<path d="M39.32 31.32C39.32 29.9867 39.6133 28.8 40.2 27.76C40.7867 26.72 41.5733 25.9067 42.56 25.32C44.5333 24.1467 46.6 23.56 48.76 23.56C51.64 23.56 54 24.24 55.84 25.6C57.7067 26.9333 58.6267 28.8533 58.6 31.36C58.52 34.6667 56.8533 37 53.6 38.36C55.36 38.7067 56.7867 39.48 57.88 40.68C58.9733 41.88 59.52 43.3333 59.52 45.04C59.52 48.0267 58.3733 50.2667 56.08 51.76C53.7867 53.2533 51.1467 54 48.16 54C43.0133 54 39.0933 52.16 36.4 48.48L40.28 44.88C40.8933 46.24 41.96 47.44 43.48 48.48C45.0533 49.5467 46.5867 50.08 48.08 50.08C49.6 50.08 50.8267 49.6267 51.76 48.72C52.6933 47.7867 53.16 46.64 53.16 45.28C53.16 44.4267 52.9333 43.68 52.48 43.04C51.3333 41.4933 49.0667 40.72 45.68 40.72C45.52 40.72 45.36 40.72 45.2 40.72H42.76L43.08 37.08C45.0267 37.08 46.6533 37.0133 47.96 36.88C49.2933 36.7467 50.44 36.2667 51.4 35.44C52.44 34.5067 52.96 33.24 52.96 31.64C52.96 30.52 52.56 29.5333 51.76 28.68C50.9867 27.8 49.8533 27.3467 48.36 27.32C47.1067 27.3733 46.1733 27.76 45.56 28.48C44.9733 29.1733 44.68 29.9067 44.68 30.68C44.68 31.4533 44.76 32.08 44.92 32.56H39.4C39.3467 32.0267 39.32 31.6133 39.32 31.32ZM63.1281 32.56C63.1281 29.7067 64.3681 27.4667 66.8481 25.84C69.3281 24.2133 72.1815 23.4 75.4081 23.4C79.5415 23.4 83.1681 24.5867 86.2881 26.96C87.8348 28.16 89.0348 29.76 89.8881 31.76C90.7415 33.7333 91.1681 35.92 91.1681 38.32C91.1681 43.04 89.8215 46.88 87.1281 49.84C84.3281 52.8533 80.8215 54.36 76.6081 54.36C75.6748 54.36 74.6881 54.24 73.6481 54C72.6081 53.76 71.7815 53.44 71.1681 53.04C70.1815 53.7867 68.9148 54.16 67.3681 54.16C65.8481 54.16 64.6615 53.7333 63.8081 52.88C62.9548 52.0267 62.5281 50.9333 62.5281 49.6C62.5281 46.4533 64.9148 43.7733 69.6881 41.56C69.8215 40.44 70.0081 38.9333 70.2481 37.04C70.5148 35.12 70.7148 33.5733 70.8481 32.4C71.0081 31.2267 71.1148 30.4533 71.1681 30.08C72.2615 29.3867 73.5281 29.04 74.9681 29.04C75.6348 29.04 76.2748 29.1067 76.8881 29.24L74.3681 46.32C74.1281 47.84 73.7948 49.1067 73.3681 50.12C74.1948 50.3333 74.8615 50.44 75.3681 50.44C78.4348 50.44 80.8081 49.28 82.4881 46.96C84.2215 44.5333 85.0881 41.6 85.0881 38.16C85.0881 33.76 83.5015 30.6 80.3281 28.68C78.5681 27.6133 76.6348 27.08 74.5281 27.08C71.8348 27.08 69.7015 27.8133 68.1281 29.28C67.2215 30.1067 66.7681 31.1067 66.7681 32.28C66.7681 32.8933 66.9548 33.48 67.3281 34.04C67.7015 34.5733 68.3548 34.88 69.2881 34.96L68.8881 37.56C66.9415 37.4533 65.4881 36.92 64.5281 35.96C63.5948 34.9733 63.1281 33.84 63.1281 32.56ZM65.4881 49.08C65.4881 50.04 65.9415 50.52 66.8481 50.52C67.2215 50.52 67.6081 50.28 68.0081 49.8C68.4348 49.2933 68.7281 48.5067 68.8881 47.44L69.2481 44.96C66.7415 46.3733 65.4881 47.7467 65.4881 49.08Z" fill="black"/>
<path d="M53.74 73.04C52.5267 73.04 51.92 72.9067 51.92 72.64V59.68C51.92 59.2267 52.1267 59 52.54 59H56.06C58.0333 59 59.4533 59.4067 60.32 60.22C61.2 61.0333 61.64 62.2133 61.64 63.76C61.64 65.04 61.2267 66.2133 60.4 67.28C59.9867 67.8133 59.38 68.24 58.58 68.56C57.78 68.88 56.8467 69.04 55.78 69.04V72.62C55.78 72.78 55.5267 72.8933 55.02 72.96C54.5267 73.0133 54.1 73.04 53.74 73.04ZM55.78 62.48V65.64H56.04C56.5067 65.64 56.9 65.4933 57.22 65.2C57.54 64.9067 57.7 64.4933 57.7 63.96C57.7 63.4267 57.5867 63.0467 57.36 62.82C57.1467 62.5933 56.76 62.48 56.2 62.48H55.78ZM69.1263 58.82C70.0996 58.82 70.9529 58.96 71.6863 59.24C72.4329 59.5067 72.8063 59.8733 72.8063 60.34C72.8063 60.8067 72.6263 61.3867 72.2663 62.08C71.9196 62.76 71.6263 63.1 71.3863 63.1C71.3196 63.1 71.2396 63.0667 71.1463 63C71.0663 62.92 70.8663 62.84 70.5463 62.76C70.2396 62.6667 69.9729 62.62 69.7463 62.62C68.9729 62.62 68.3463 62.8933 67.8663 63.44C67.3996 63.9867 67.1663 64.8267 67.1663 65.96C67.1663 67.08 67.4063 67.9133 67.8863 68.46C68.3796 69.0067 68.9996 69.28 69.7463 69.28C70.0529 69.28 70.3929 69.24 70.7663 69.16C71.1529 69.0667 71.4263 68.94 71.5863 68.78C71.6129 68.7533 71.6663 68.74 71.7463 68.74C71.8263 68.74 71.9729 68.8933 72.1863 69.2C72.4129 69.4933 72.6196 69.8867 72.8063 70.38C72.9929 70.86 73.0863 71.2333 73.0863 71.5C73.0863 72.02 72.6863 72.4333 71.8863 72.74C71.0863 73.0467 70.1396 73.2 69.0463 73.2C67.2863 73.2 65.8396 72.58 64.7063 71.34C63.5729 70.1 63.0063 68.3533 63.0063 66.1C63.0063 63.8333 63.5863 62.0533 64.7463 60.76C65.9196 59.4667 67.3796 58.82 69.1263 58.82Z" fill="#2F2F2F"/>
</svg>
